<?xml version="1.0" encoding="UTF-8" standalone="no"?>
<!DOCTYPE svg PUBLIC "-//W3C//DTD SVG 1.1//EN" "http://www.w3.org/Graphics/SVG/1.1/DTD/svg11.dtd">
<svg xmlns="http://www.w3.org/2000/svg" version="1.1" viewBox="0 0 945 287">
<path fill="#ffffff" d="M 0.00,0.00 Q 472.50,0.00 945.00,0.00 Q 945.00,143.50 945.00,287.00 Q 472.50,287.00 0.00,287.00 Q 0.00,143.50 0.00,0.00 ZM 93.15,116.11 Q 90.91,113.85 88.01,111.18 A 0.97,0.96 -46.1 0 0 86.67,111.21 L 71.79,126.09 A 0.57,0.57 0.0 0 0 71.79,126.91 L 111.15,166.39 A 0.51,0.50 45.4 0 1 111.15,167.10 L 71.85,206.40 A 0.51,0.50 45.0 0 0 71.86,207.11 L 87.07,222.58 A 0.51,0.51 45.0 0 0 87.79,222.58 L 143.34,167.04 A 0.50,0.50 45.0 0 0 143.33,166.33 Q 118.12,141.33 93.15,116.11 ZM 484.94,134.44 Q 478.46,141.28 478.25,151.25 Q 477.94,165.79 490.93,171.08 Q 496.63,173.40 502.43,175.45 Q 505.81,176.64 507.56,178.44 Q 509.29,180.21 509.27,182.59 Q 509.24,184.59 507.86,186.53 Q 504.65,190.99 498.41,189.97 Q 490.15,188.61 483.82,182.84 A 0.41,0.40 35.3 0 0 483.19,182.94 L 475.45,197.88 A 0.65,0.64 29.8 0 0 475.69,198.72 Q 480.23,201.61 485.52,203.69 Q 495.01,207.41 504.61,206.42 Q 515.07,205.34 521.61,199.63 Q 529.30,192.91 529.25,181.25 Q 529.18,165.38 514.43,160.20 Q 504.71,156.80 501.81,155.19 Q 497.42,152.75 498.40,148.64 Q 499.00,146.14 501.24,144.74 Q 503.53,143.30 506.25,143.50 Q 512.62,143.98 518.08,148.11 A 0.72,0.71 31.6 0 0 519.16,147.86 L 526.08,133.91 A 0.65,0.64 -63.2 0 0 525.80,133.05 Q 514.61,127.06 502.50,127.23 Q 491.61,127.38 484.94,134.44 ZM 662.76,129.35 A 0.30 0.30 0.0 0 0 662.46,129.05 L 644.30,129.05 A 0.30 0.30 0.0 0 0 644.00,129.35 L 644.00,204.45 A 0.30 0.30 0.0 0 0 644.30,204.75 L 662.46,204.75 A 0.30 0.30 0.0 0 0 662.76,204.45 L 662.76,129.35 ZM 833.70,158.58 L 868.59,204.34 A 1.07,1.07 71.0 0 0 869.43,204.75 L 886.96,204.69 A 0.78,0.78 89.6 0 0 887.74,203.90 L 887.57,129.69 A 0.51,0.50 0.0 0 0 887.06,129.19 L 869.45,129.31 A 0.71,0.71 -0.4 0 0 868.75,130.02 L 868.69,173.83 Q 868.69,175.74 867.52,174.22 L 833.37,129.58 A 1.02,1.00 -18.4 0 0 832.57,129.19 L 814.81,129.25 A 0.56,0.55 -0.0 0 0 814.25,129.80 L 814.31,204.18 A 0.52,0.50 90.0 0 0 814.81,204.70 L 832.57,204.58 A 0.51,0.49 90.0 0 0 833.06,204.07 L 833.25,158.73 Q 833.25,157.99 833.70,158.58 ZM 359.33,163.86 L 365.60,204.07 A 0.60,0.58 85.4 0 0 366.18,204.58 L 383.40,204.73 A 0.80,0.78 85.4 0 0 384.18,203.80 L 371.74,129.76 A 0.62,0.61 84.9 0 0 371.14,129.25 L 353.30,129.31 A 0.71,0.70 -79.9 0 0 352.64,129.78 L 338.49,168.77 Q 338.12,169.79 337.76,168.76 L 323.73,129.91 A 0.73,0.70 80.1 0 0 323.06,129.42 L 305.10,129.26 A 0.71,0.70 -85.1 0 0 304.41,129.85 L 291.90,204.32 A 0.37,0.37 4.6 0 0 292.27,204.75 L 310.17,204.75 A 0.72,0.71 -85.2 0 0 310.87,204.15 L 317.16,163.54 Q 317.42,161.84 318.04,163.45 L 333.86,204.27 A 0.75,0.74 -10.1 0 0 334.56,204.75 L 341.78,204.75 A 0.77,0.74 -79.1 0 0 342.48,204.26 L 358.26,163.73 Q 359.01,161.79 359.33,163.86 ZM 429.91,153.73 L 446.57,203.72 A 1.46,1.38 79.8 0 0 447.93,204.72 L 467.20,204.46 A 0.37,0.35 79.5 0 0 467.52,203.96 L 440.74,129.91 A 0.76,0.72 79.8 0 0 440.07,129.42 L 419.29,129.26 A 1.37,1.33 -79.6 0 0 418.03,130.16 L 391.25,204.20 A 0.41,0.41 9.9 0 0 391.64,204.75 L 411.43,204.69 A 0.71,0.69 9.1 0 0 412.10,204.22 L 429.01,153.73 Q 429.46,152.38 429.91,153.73 ZM 584.60,168.34 L 570.60,129.78 A 0.71,0.68 79.6 0 0 569.95,129.31 L 551.99,129.25 A 0.67,0.65 -84.7 0 0 551.35,129.80 L 538.97,204.20 A 0.47,0.47 5.1 0 0 539.43,204.75 L 557.16,204.75 A 0.60,0.59 4.5 0 0 557.75,204.25 L 564.19,163.17 Q 564.40,161.87 564.88,163.10 L 580.88,204.22 A 0.74,0.72 79.5 0 0 581.56,204.70 L 588.66,204.75 A 0.88,0.85 -78.8 0 0 589.48,204.18 L 605.26,163.45 Q 605.91,161.76 606.18,163.55 L 612.36,204.06 A 0.61,0.58 85.4 0 0 612.94,204.58 L 630.56,204.73 A 0.61,0.60 85.6 0 0 631.16,204.02 L 618.76,129.84 A 0.72,0.71 -4.7 0 0 618.05,129.25 L 600.25,129.25 A 0.72,0.71 -80.1 0 0 599.58,129.73 L 585.63,168.34 Q 585.12,169.77 584.60,168.34 ZM 700.19,170.08 L 700.31,204.18 A 0.51,0.50 90.0 0 0 700.81,204.69 L 718.36,204.74 A 0.64,0.63 -89.6 0 0 719.00,204.10 L 719.00,169.83 A 3.23,3.16 -28.4 0 1 719.56,168.03 L 745.88,129.91 Q 746.33,129.25 745.53,129.25 L 724.48,129.25 A 2.04,2.01 17.1 0 0 722.81,130.12 L 710.06,148.50 A 0.50,0.48 -45.1 0 1 709.25,148.51 L 696.28,129.66 A 0.95,0.94 -17.0 0 0 695.50,129.25 L 673.73,129.25 Q 672.90,129.25 673.38,129.93 L 699.43,167.66 A 4.39,4.32 28.0 0 1 700.19,170.08 ZM 798.15,187.93 L 775.74,188.00 A 0.51,0.49 90.0 0 1 775.25,187.49 L 775.25,146.69 A 0.69,0.68 -90.0 0 1 775.93,146.00 L 797.65,146.00 A 0.85,0.85 0.2 0 0 798.50,145.15 L 798.50,129.81 A 0.56,0.56 90.0 0 0 797.94,129.25 L 757.04,129.25 A 0.54,0.54 90.0 0 0 756.50,129.79 L 756.44,204.23 A 0.52,0.51 90.0 0 0 756.95,204.75 L 797.94,204.75 A 0.56,0.56 90.0 0 0 798.50,204.19 L 798.50,188.27 A 0.35,0.34 0.0 0 0 798.15,187.93 ZM 789.4900,177.1200 A 10.15,9.81 90.0 0 0 799.3000,166.9700 A 10.15,9.81 90.0 0 0 789.4900,156.8200 A 10.15,9.81 90.0 0 0 779.6800,166.9700 A 10.15,9.81 90.0 0 0 789.4900,177.1200 ZM 429.1545,201.5444 A 10.12,9.82 91.9 0 0 439.3046,191.7556 A 10.12,9.82 91.9 0 0 429.8255,181.3156 A 10.12,9.82 91.9 0 0 419.6754,191.1044 A 10.12,9.82 91.9 0 0 429.1545,201.5444 ZM 230.50,201.31 A 0.56 0.56 0.0 0 0 229.94,200.75 L 151.56,200.75 A 0.56 0.56 0.0 0 0 151.00,201.31 L 151.00,222.95 A 0.56 0.56 0.0 0 0 151.56,223.51 L 229.94,223.51 A 0.56 0.56 0.0 0 0 230.50,222.95 L 230.50,201.31 Z"/>
<path fill="#1f8081" d="M 93.15,116.11 Q 118.12,141.33 143.33,166.33 A 0.51,0.49 45.0 0 1 143.34,167.04 L 87.79,222.58 A 0.51,0.51 45.5 0 1 87.07,222.58 L 71.86,207.11 A 0.51,0.49 45.0 0 1 71.85,206.40 L 111.15,167.10 A 0.51,0.50 45.4 0 0 111.15,166.39 L 71.79,126.91 A 0.57,0.57 -0.0 0 1 71.79,126.09 L 86.67,111.21 A 0.97,0.96 -46.1 0 1 88.01,111.18 Q 90.91,113.85 93.15,116.11 Z"/>
<path fill="#1f8081" d="M 484.94,134.44 Q 491.61,127.38 502.50,127.23 Q 514.61,127.06 525.80,133.05 A 0.65,0.64 -63.2 0 1 526.08,133.91 L 519.16,147.86 A 0.72,0.71 31.6 0 1 518.08,148.11 Q 512.62,143.98 506.25,143.50 Q 503.53,143.30 501.24,144.74 Q 499.00,146.14 498.40,148.64 Q 497.42,152.75 501.81,155.19 Q 504.71,156.80 514.43,160.20 Q 529.18,165.38 529.25,181.25 Q 529.30,192.91 521.61,199.63 Q 515.07,205.34 504.61,206.42 Q 495.01,207.41 485.52,203.69 Q 480.23,201.61 475.69,198.72 A 0.65,0.64 29.8 0 1 475.45,197.88 L 483.19,182.94 A 0.41,0.40 35.3 0 1 483.82,182.84 Q 490.15,188.61 498.41,189.97 Q 504.65,190.99 507.86,186.53 Q 509.24,184.59 509.27,182.59 Q 509.29,180.21 507.56,178.44 Q 505.81,176.64 502.43,175.45 Q 496.63,173.40 490.93,171.08 Q 477.94,165.79 478.25,151.25 Q 478.46,141.28 484.94,134.44 Z"/>
<rect fill="#1f8081" x="644.00" y="129.05" width="18.76" height="75.70" rx="0.30"/>
<path fill="#1f8081" d="M 833.70,158.58 Q 833.25,157.99 833.25,158.73 L 833.06,204.07 A 0.51,0.49 -90.0 0 1 832.57,204.58 L 814.81,204.70 A 0.52,0.50 -90.0 0 1 814.31,204.18 L 814.25,129.80 A 0.56,0.55 0.0 0 1 814.81,129.25 L 832.57,129.19 A 1.02,1.00 -18.4 0 1 833.37,129.58 L 867.52,174.22 Q 868.69,175.74 868.69,173.83 L 868.75,130.02 A 0.71,0.71 -0.4 0 1 869.45,129.31 L 887.06,129.19 A 0.51,0.50 0.0 0 1 887.57,129.69 L 887.74,203.90 A 0.78,0.78 89.6 0 1 886.96,204.69 L 869.43,204.75 A 1.07,1.07 71.0 0 1 868.59,204.34 L 833.70,158.58 Z"/>
<path fill="#1f8081" d="M 359.33,163.86 Q 359.01,161.79 358.26,163.73 L 342.48,204.26 A 0.77,0.74 -79.1 0 1 341.78,204.75 L 334.56,204.75 A 0.75,0.74 -10.1 0 1 333.86,204.27 L 318.04,163.45 Q 317.42,161.84 317.16,163.54 L 310.87,204.15 A 0.72,0.71 -85.2 0 1 310.17,204.75 L 292.27,204.75 A 0.37,0.37 4.6 0 1 291.90,204.32 L 304.41,129.85 A 0.71,0.70 -85.1 0 1 305.10,129.26 L 323.06,129.42 A 0.73,0.70 80.1 0 1 323.73,129.91 L 337.76,168.76 Q 338.12,169.79 338.49,168.77 L 352.64,129.78 A 0.71,0.70 -79.9 0 1 353.30,129.31 L 371.14,129.25 A 0.62,0.61 84.9 0 1 371.74,129.76 L 384.18,203.80 A 0.80,0.78 85.4 0 1 383.40,204.73 L 366.18,204.58 A 0.60,0.58 85.4 0 1 365.60,204.07 L 359.33,163.86 Z"/>
<path fill="#1f8081" d="M 429.91,153.73 Q 429.46,152.38 429.01,153.73 L 412.10,204.22 A 0.71,0.69 9.1 0 1 411.43,204.69 L 391.64,204.75 A 0.41,0.41 9.9 0 1 391.25,204.20 L 418.03,130.16 A 1.37,1.33 -79.6 0 1 419.29,129.26 L 440.07,129.42 A 0.76,0.72 79.8 0 1 440.74,129.91 L 467.52,203.96 A 0.37,0.35 79.5 0 1 467.20,204.46 L 447.93,204.72 A 1.46,1.38 79.8 0 1 446.57,203.72 L 429.91,153.73 Z"/>
<path fill="#1f8081" d="M 584.60,168.34 Q 585.12,169.77 585.63,168.34 L 599.58,129.73 A 0.72,0.71 -80.1 0 1 600.25,129.25 L 618.05,129.25 A 0.72,0.71 -4.7 0 1 618.76,129.84 L 631.16,204.02 A 0.61,0.60 85.6 0 1 630.56,204.73 L 612.94,204.58 A 0.61,0.58 85.4 0 1 612.36,204.06 L 606.18,163.55 Q 605.91,161.76 605.26,163.45 L 589.48,204.18 A 0.88,0.85 -78.8 0 1 588.66,204.75 L 581.56,204.70 A 0.74,0.72 79.5 0 1 580.88,204.22 L 564.88,163.10 Q 564.40,161.87 564.19,163.17 L 557.75,204.25 A 0.60,0.59 4.5 0 1 557.16,204.75 L 539.43,204.75 A 0.47,0.47 5.1 0 1 538.97,204.20 L 551.35,129.80 A 0.67,0.65 -84.7 0 1 551.99,129.25 L 569.95,129.31 A 0.71,0.68 79.6 0 1 570.60,129.78 L 584.60,168.34 Z"/>
<path fill="#1f8081" d="M 700.19,170.08 A 4.39,4.32 28.0 0 0 699.43,167.66 L 673.38,129.93 Q 672.90,129.25 673.73,129.25 L 695.50,129.25 A 0.95,0.94 -17.0 0 1 696.28,129.66 L 709.25,148.51 A 0.50,0.48 -45.1 0 0 710.06,148.50 L 722.81,130.12 A 2.04,2.01 17.1 0 1 724.48,129.25 L 745.53,129.25 Q 746.33,129.25 745.88,129.91 L 719.56,168.03 A 3.23,3.16 -28.4 0 0 719.00,169.83 L 719.00,204.10 A 0.64,0.63 -89.6 0 1 718.36,204.74 L 700.81,204.69 A 0.51,0.50 90.0 0 1 700.31,204.18 L 700.19,170.08 Z"/>
<path fill="#1f8081" d="M 798.15,187.93 A 0.35,0.34 0.0 0 1 798.50,188.27 L 798.50,204.19 A 0.56,0.56 89.8 0 1 797.94,204.75 L 756.95,204.75 A 0.52,0.51 -90.0 0 1 756.44,204.23 L 756.50,129.79 A 0.54,0.54 -89.8 0 1 757.04,129.25 L 797.94,129.25 A 0.56,0.56 -89.8 0 1 798.50,129.81 L 798.50,145.15 A 0.85,0.85 -0.0 0 1 797.65,146.00 L 775.93,146.00 A 0.69,0.68 -90.0 0 0 775.25,146.69 L 775.25,187.49 A 0.51,0.49 -90.0 0 0 775.74,188.00 L 798.15,187.93 Z"/>
<ellipse fill="#c8c7b1" cx="0.00" cy="0.00" transform="translate(789.49,166.97) rotate(90.0)" rx="10.15" ry="9.81"/>
<ellipse fill="#c8c7b1" cx="0.00" cy="0.00" transform="translate(429.49,191.43) rotate(91.9)" rx="10.12" ry="9.82"/>
<rect fill="#1f8081" x="151.00" y="200.75" width="79.50" height="22.76" rx="0.56"/>
</svg>
